<?xml version="1.0" encoding="UTF-8"?>
<svg width="29px" height="26px" viewBox="0 0 29 26" version="1.1" xmlns="http://www.w3.org/2000/svg" xmlns:xlink="http://www.w3.org/1999/xlink">
    <title>A0024F4B-76C9-4D4A-9631-4B767D4A2958</title>
    <g id="Assets" stroke="none" stroke-width="1" fill-rule="evenodd">
        <g id="0.3-style-guide" transform="translate(-441.000000, -603.000000)"  fill-rule="nonzero">
            <g id="icon-twitter" transform="translate(441.000000, 603.000000)">
                <g id="if_03-twitter_104501" transform="translate(1.460845, 1.523342)">
                    <path d="M26.2094959,2.82282615 C25.2570831,3.27146881 24.2320955,3.57409361 23.156621,3.70952238 C24.2547094,3.0128723 25.0966822,1.90937856 25.49374,0.592988554 C24.4666488,1.23892251 23.3296436,1.70762869 22.1184858,1.960652 C21.1492441,0.866075388 19.7676933,0.181686343 18.2388893,0.181686343 C15.303817,0.181686343 12.9240998,2.70355966 12.9240998,5.81452029 C12.9240998,6.25536046 12.9709053,6.68505423 13.0618867,7.09802841 C8.64429006,6.86283934 4.72735435,4.6207407 2.10572108,1.21272847 C1.64818428,2.04425001 1.38628391,3.01175766 1.38628391,4.04502906 C1.38628391,5.99899323 2.3244973,7.72334152 3.75074994,8.73320549 C2.87985231,8.70366753 2.0599674,8.45008689 1.34315975,8.0281956 C1.34263385,8.05160304 1.34263385,8.07556781 1.34263385,8.09953257 C1.34263385,10.8281716 3.17488466,13.1042668 5.60666644,13.6225745 C5.16069954,13.7507581 4.69106694,13.8198658 4.20618312,13.8198658 C3.86329347,13.8198658 3.53039601,13.7847546 3.20591301,13.7184335 C3.88275193,15.9560736 5.84542703,17.5851202 8.17097613,17.6302631 C6.35187293,19.1411578 4.06050761,20.041787 1.56982453,20.041787 C1.14121247,20.041787 0.717859459,20.0150357 0.301869106,19.9626476 C2.65476524,21.5615988 5.44836923,22.493438 8.44970545,22.493438 C18.2267935,22.493438 23.5726114,13.9107089 23.5726114,6.46714209 C23.5726114,6.2230359 23.5678783,5.97948703 23.5578861,5.73761012 C24.5960213,4.94510098 25.4974214,3.95251393 26.2094959,2.82282615 Z" id="Shape"></path>
                </g>
            </g>
        </g>
    </g>
</svg>