<?xml version="1.0" encoding="UTF-8"?>
<svg width="26px" height="26px" viewBox="0 0 26 26" version="1.1" xmlns="http://www.w3.org/2000/svg" xmlns:xlink="http://www.w3.org/1999/xlink">
    <title>D2519BB6-E164-4BB7-8789-B5C4301851F6</title>
    <g id="Assets" stroke="none" stroke-width="1" fill-rule="evenodd">
        <g id="0.3-assets" transform="translate(-295.000000, -603.000000)" fill-rule="nonzero">
            <g id="apple-music" transform="translate(295.000000, 603.000000)">
                <path d="M25.2711034,6.45068966 C25.2702069,5.67337931 25.2029655,4.90144828 25.0182759,4.14296552 C24.6847586,2.76586207 23.9002759,1.71062069 22.7222069,0.939586207 C22.117931,0.544206897 21.4544828,0.300344828 20.7462069,0.173034483 C20.2011034,0.0753103448 19.6515172,0.0304827586 19.0983448,0.0143448276 C19.0553103,0.0125517241 19.0104828,0.00627586207 18.9674483,0.00179310345 L6.30455172,0.00179310345 C6.14496552,0.0107586207 5.98537931,0.0197241379 5.8257931,0.0286896552 C5.03862069,0.0735172414 4.25682759,0.159586207 3.51717241,0.451862069 C2.1077931,1.00951724 1.09289655,1.98137931 0.497586207,3.3782069 C0.295862069,3.85158621 0.190068966,4.35365517 0.115655172,4.862 C0.0555862069,5.27441379 0.0215172414,5.68862069 0.00986206897,6.10551724 C0.00896551724,6.1377931 0.00179310345,6.17006897 -0.000896551724,6.20234483 L-0.000896551724,19.075931 C0.00806896552,19.2247586 0.016137931,19.3735862 0.026,19.5224138 C0.0788965517,20.3804138 0.188275862,21.2330345 0.549586207,22.0211034 C1.23455172,23.5165517 2.37944828,24.4991724 3.95558621,24.9716552 C4.39937931,25.1052414 4.85662069,25.1688966 5.31744828,25.211931 C5.90110345,25.2675172 6.48655172,25.2764828 7.072,25.2764828 C10.9442069,25.2764828 14.8164138,25.2764828 18.6886207,25.2746897 C19.2417931,25.2746897 19.7922759,25.2397241 20.3418621,25.1706897 C21.2088276,25.0595172 22.0237931,24.8013103 22.7598621,24.3171724 C23.6456552,23.7344138 24.31,22.9615862 24.7394483,21.9915172 C24.9357931,21.5477241 25.0478621,21.0761379 25.1285517,20.5973793 C25.2486897,19.8864138 25.2746897,19.1673793 25.2738152,18.4483448 C25.272,14.4488276 25.2746897,10.4502069 25.2711034,6.45068966 M18.5066207,10.6528276 C18.5066207,12.6584138 18.5075172,14.664 18.5057241,16.6686897 C18.5057241,17.108 18.4456552,17.5392414 18.2502069,17.9391034 C17.9462759,18.5613103 17.4486897,18.9522069 16.7888276,19.1395862 C16.4212414,19.2444828 16.0455862,19.3045517 15.6627586,19.3215862 C14.6604138,19.3691034 13.7943448,18.6895172 13.6150345,17.7042069 C13.4662069,16.8910345 13.8553103,15.9944828 14.7097241,15.5757931 C15.0504138,15.4072414 15.4144138,15.3131034 15.782,15.2342069 C16.180069,15.1481379 16.579931,15.0728276 16.9762069,14.9813793 C17.2648966,14.9150345 17.4576552,14.7384138 17.5141379,14.438069 C17.5275862,14.3717241 17.5329655,14.3026897 17.5329655,14.2345517 C17.5338621,12.3231034 17.5338621,10.4125517 17.532069,8.502 C17.532069,8.43655172 17.5213103,8.3702069 17.5051724,8.30744828 C17.463931,8.14875862 17.3482759,8.05193103 17.1851034,8.06089655 C17.0165517,8.07075862 16.8506897,8.09765517 16.6848276,8.13082759 C15.8842069,8.28862069 15.0844828,8.45089655 14.2847586,8.61227586 C13.468,8.77634483 12.6512414,8.9422069 11.8335862,9.10717241 C11.3512414,9.20489655 10.8688966,9.30172414 10.3865517,9.39944828 C10.3695172,9.40303448 10.3524828,9.40841379 10.3363448,9.41289655 C10.0449655,9.49358621 9.93917241,9.62717241 9.92572414,9.92841379 C9.92393103,9.97413793 9.92482759,10.0198621 9.92482759,10.0664828 C9.92393103,12.8063448 9.92482759,15.5471034 9.92303448,18.286069 C9.92303448,18.7289655 9.87372414,19.1664828 9.6962069,19.578 C9.40303448,20.254 8.88482759,20.6744828 8.18551724,20.878 C7.81613793,20.9846897 7.43689655,21.0456552 7.05317241,21.0591034 C6.04365517,21.0967586 5.20537931,20.4261379 5.03234483,19.4327586 C4.88262069,18.5765517 5.27441379,17.6575862 6.24627586,17.246069 C6.62193103,17.0882759 7.01641379,17.0013103 7.41268966,16.9188276 C7.71482759,16.8551724 8.01786207,16.7977931 8.31910345,16.7332414 C8.72165517,16.6453793 8.93234483,16.3925517 8.94937931,15.9810345 C8.95117241,15.9272414 8.95027586,15.8761379 8.95027586,15.8223448 C8.95027586,12.7050345 8.95027586,9.58682759 8.95206897,6.46951724 C8.95206897,6.33951724 8.96551724,6.20593103 8.996,6.07951724 C9.06951724,5.77917241 9.2837931,5.60793103 9.57068966,5.53351724 C9.83965517,5.46358621 10.1131034,5.41517241 10.3856552,5.35958621 C11.1575862,5.20358621 11.9295172,5.04848276 12.7014483,4.89337931 C13.4993793,4.732 14.2964138,4.57151724 15.0943448,4.41013793 C15.7990345,4.26758621 16.5037241,4.12324138 17.2102069,3.98427586 C17.4415172,3.93855172 17.6764138,3.89193103 17.9095172,3.87310345 C18.2358621,3.84710345 18.46,4.05241379 18.4931724,4.38055172 C18.5012414,4.45855172 18.5057241,4.53744828 18.5057241,4.61634483 C18.5075172,6.62910345 18.5075172,8.64096552 18.5066207,10.6528276 L18.5066207,10.6528276 Z" id="Shape"></path>
            </g>
        </g>
    </g>
</svg>