<?xml version="1.0" encoding="UTF-8"?>
<svg width="30px" height="29px" viewBox="0 0 30 29" version="1.1" xmlns="http://www.w3.org/2000/svg" xmlns:xlink="http://www.w3.org/1999/xlink">
    <title>A99A5228-2079-4442-9418-0005474012F2</title>
    <g id="Assets" stroke="none" stroke-width="1" fill-rule="evenodd">
        <g id="0.3-assets" transform="translate(-1053.000000, -604.000000)">
            <g id="Group-2" transform="translate(1053.000000, 604.000000)">
                <path d="M17.5,0 C19.4329966,0 21,1.56700338 21,3.5 C21,5.43299662 19.4329966,7 17.5,7 C17.3538128,7 17.2097189,6.99103756 17.0682378,6.97363216 L16.3236126,9.27136193 C20.7258959,10.3189167 24,14.2771043 24,19 C24,19.1828378 23.9950931,19.3645296 23.9854038,19.5449508 C24.5767757,19.1981031 25.2652531,19 26,19 C28.209139,19 30,20.790861 30,23 C30,25.209139 28.209139,27 26,27 C24.343436,27 22.9220709,25.9929936 22.314659,24.5577349 C20.5209859,27.2361919 17.4664727,29 14,29 C11.5754709,29 9.35246898,28.1371594 7.6213108,26.7017945 C6.98174398,28.0598025 5.60066944,29 4,29 C1.790861,29 0,27.209139 0,25 C0,22.790861 1.790861,21 4,21 C4.06796305,21 4.13553022,21.001695 4.20266155,21.0050449 C4.06921475,20.3572163 4,19.6866911 4,19 C4,13.4771525 8.4771525,9 14,9 C14.508404,9 15.0079468,9.03793969 15.4959514,9.11114226 L16.2535814,6.7715531 C14.9360107,6.26928629 14,4.99395165 14,3.5 C14,1.56700338 15.5670034,0 17.5,0 Z" id="Combined-Shape"></path>
                <circle id="Oval" stroke="#0077C3" fill="#e5f1f9" cx="14" cy="19" r="7.5"></circle>
            </g>
        </g>
    </g>
</svg>