<?xml version="1.0" encoding="UTF-8"?>
<svg width="28px" height="28px" viewBox="0 0 28 28" version="1.1" xmlns="http://www.w3.org/2000/svg" xmlns:xlink="http://www.w3.org/1999/xlink">
    <title>3BD5C647-8F4C-4995-9084-0562FAB6568B</title>
    <g id="Assets" stroke="none" stroke-width="1" fill-rule="evenodd">
        <g id="0.3-style-guide" transform="translate(-722.000000, -601.000000)"  fill-rule="nonzero">
            <g id="if_38-instagram_1161953" transform="translate(722.000000, 601.000000)">
                <path d="M13.7088,6.97254902 C9.9008,6.97254902 6.7456,10.1019608 6.7456,14 C6.7456,17.8980392 9.8464,21.027451 13.7088,21.027451 C17.5712,21.027451 20.672,17.8431373 20.672,14 C20.672,10.1568627 17.5168,6.97254902 13.7088,6.97254902 Z M13.7088,18.5019608 C11.2608,18.5019608 9.248,16.4705882 9.248,14 C9.248,11.5294118 11.2608,9.49803922 13.7088,9.49803922 C16.1568,9.49803922 18.1696,11.5294118 18.1696,14 C18.1696,16.4705882 16.1568,18.5019608 13.7088,18.5019608 Z" id="Shape"></path>
                <ellipse id="Oval" cx="20.944" cy="6.80784314" rx="1.5776" ry="1.59215686"></ellipse>
                <path d="M25.024,2.69019608 C23.6096,1.20784314 21.5968,0.439215686 19.312,0.439215686 L8.1056,0.439215686 C3.3728,0.439215686 0.2176,3.62352941 0.2176,8.4 L0.2176,19.654902 C0.2176,22.0156863 0.9792,24.0470588 2.5024,25.5294118 C3.9712,26.9568627 5.9296,27.6705882 8.16,27.6705882 L19.2576,27.6705882 C21.5968,27.6705882 23.5552,26.9019608 24.9696,25.5294118 C26.4384,24.1019608 27.2,22.0705882 27.2,19.7098039 L27.2,8.4 C27.2,6.09411765 26.4384,4.11764706 25.024,2.69019608 Z M24.8064,19.7098039 C24.8064,21.4117647 24.208,22.7843137 23.2288,23.7176471 C22.2496,24.6509804 20.8896,25.145098 19.2576,25.145098 L8.16,25.145098 C6.528,25.145098 5.168,24.6509804 4.1888,23.7176471 C3.2096,22.7294118 2.72,21.3568627 2.72,19.654902 L2.72,8.4 C2.72,6.75294118 3.2096,5.38039216 4.1888,4.39215686 C5.1136,3.45882353 6.528,2.96470588 8.16,2.96470588 L19.3664,2.96470588 C20.9984,2.96470588 22.3584,3.45882353 23.3376,4.44705882 C24.2624,5.43529412 24.8064,6.80784314 24.8064,8.4 L24.8064,19.7098039 L24.8064,19.7098039 Z" id="Shape"></path>
            </g>
        </g>
    </g>
</svg>