<?xml version="1.0" encoding="UTF-8"?>
<svg width="19px" height="36px" viewBox="0 0 19 36" version="1.1" xmlns="http://www.w3.org/2000/svg" xmlns:xlink="http://www.w3.org/1999/xlink">
    <title>4B5C50BA-B551-471B-93ED-FC7CB0DEED57</title>
    <g id="Assets" stroke="none" stroke-width="1" fill-rule="evenodd">
        <g id="0.3-style-guide" transform="translate(-861.000000, -598.000000)" fill-rule="nonzero">
            <g id="icon-facebook" transform="translate(861.000000, 598.000000)">
                <g id="if_06-facebook_104498" transform="translate(2.949189, 2.994825)">
                    <path d="M12.9561568,9.13852395 L8.72867838,9.13852395 L8.72867838,6.22724883 C8.72867838,5.13392393 9.41878865,4.87902768 9.90485189,4.87902768 C10.3898092,4.87902768 12.8881411,4.87902768 12.8881411,4.87902768 L12.8881411,0.0725786577 L8.77955189,0.0557404091 C4.21863081,0.0557404091 3.18070054,3.64054547 3.18070054,5.93461168 L3.18070054,9.13852395 L0.543019459,9.13852395 L0.543019459,14.0912915 L3.18070054,14.0912915 C3.18070054,20.4474401 3.18070054,28.10594 3.18070054,28.10594 L8.72867838,28.10594 C8.72867838,28.10594 8.72867838,20.3719583 8.72867838,14.0912915 L12.4723054,14.0912915 L12.9561568,9.13852395 Z" id="Shape"></path>
                </g>
            </g>
        </g>
    </g>
</svg>