<?xml version="1.0" encoding="UTF-8"?>
<svg height="49px" viewBox="0 0 218 49" version="1.1" xmlns="http://www.w3.org/2000/svg" xmlns:xlink="http://www.w3.org/1999/xlink">
    <title>0337B86A-096F-4543-9B3B-508748A5C314</title>
    <g id="Assets" stroke="none" stroke-width="1" fill="none" fill-rule="evenodd">
        <g id="0.3-assets" transform="translate(-170.000000, -445.000000)" fill="#FFFFFF">
            <g id="nmc-logo" transform="translate(170.000000, 445.000000)">
                <polygon id="Fill-1" points="47.7068407 0.903508772 0 48.6104492 24.0859607 48.6104492 47.2927448 25.4036167 47.2927448 48.9035088 95 1.1965683 70.9136247 1.1965683 47.7072552 24.4029863 47.7072552 0.903508772"></polygon>
                <polygon id="Fill-2" points="105.893772 0.903508772 58 48.6104492 82.1803376 48.6104492 105.478054 25.4036167 105.478054 48.9035088 129.069977 25.4036167 129.069977 48.6104492 146 48.6104492 146 1.1965683 129.191488 1.1965683 105.894188 24.4029863 105.894188 0.903508772"></polygon>
                <polygon id="Fill-3" points="153 0.903508772 153 48.9035088 218 48.9035088 201.517869 31.8306408 169.482536 31.8306408 169.482536 17.9759571 185.845564 17.9759571 169.363838 0.903508772"></polygon>
            </g>
        </g>
    </g>
</svg>