<?xml version="1.0" encoding="UTF-8"?>
<svg width="24px" height="24px" viewBox="0 0 24 24" version="1.1" xmlns="http://www.w3.org/2000/svg" xmlns:xlink="http://www.w3.org/1999/xlink">
    <title>9AF7857F-2779-4ADC-8052-8E77D27A42DA</title>
    <g id="Assets" stroke="none" stroke-width="1" fill="none" fill-rule="evenodd">
        <g id="0.3-assets" transform="translate(-990.000000, -605.000000)" fill="#FFFFFF" fill-rule="nonzero">
            <g id="search" transform="translate(990.000000, 605.000000)">
                <path d="M24,21.646 L17.7452224,15.441 C18.9215843,13.836 19.6171196,11.862 19.6171196,9.73 C19.6171196,4.365 15.2171028,0 9.80805578,0 C4.4000168,0 0,4.365 0,9.73 C0,15.096 4.4000168,19.46 9.80805578,19.46 C11.8583729,19.46 13.7625268,18.833 15.3390735,17.762 L21.6271158,24 L24,21.646 L24,21.646 Z M2.87689529,9.73 C2.87689529,5.938 5.98664371,2.853 9.8090638,2.853 C13.6314839,2.853 16.7412323,5.938 16.7412323,9.73 C16.7412323,13.522 13.6314839,16.607 9.8090638,16.607 C5.98563568,16.607 2.87689529,13.522 2.87689529,9.73 Z" id="Shape"></path>
            </g>
        </g>
    </g>
</svg>