<?xml version="1.0" encoding="UTF-8"?>
<svg width="25px" height="26px" viewBox="0 0 25 26" version="1.1" xmlns="http://www.w3.org/2000/svg" xmlns:xlink="http://www.w3.org/1999/xlink">
    <title>BD0601AE-5703-4DE1-8DCB-3765D804D5AF</title>
    <g id="Assets" stroke="none" stroke-width="1" fill="none" fill-rule="evenodd">
        <g id="0.3-assets" transform="translate(-170.000000, -603.000000)" fill="#FFFFFF" fill-rule="nonzero">
            <g id="spotify" transform="translate(170.000000, 603.000000)">
                <path d="M17.7820158,18.3151042 C17.7820158,17.9539931 17.624234,17.6662326 17.3086703,17.4518229 C15.2785436,16.1540799 12.9275939,15.5052083 10.255821,15.5052083 C8.85682185,15.5052083 7.34737537,15.6970486 5.72748159,16.0807292 C5.28569238,16.1822917 5.06479777,16.4756944 5.06479777,16.9609375 C5.06479777,17.1866319 5.13579961,17.3812934 5.27780328,17.5449219 C5.41980696,17.7085503 5.6065155,17.7903646 5.83792889,17.7903646 C5.89052285,17.7903646 6.08512048,17.7452257 6.42172178,17.6549479 C7.81020217,17.3502604 9.08823525,17.1979167 10.255821,17.1979167 C12.6330677,17.1979167 14.7210477,17.7790799 16.5197609,18.9414063 C16.719618,19.0655382 16.893178,19.1276042 17.0404411,19.1276042 C17.2402981,19.1276042 17.4138582,19.0514323 17.5611212,18.8990885 C17.7083843,18.7467448 17.7820158,18.5520833 17.7820158,18.3151042 Z M19.2967217,14.6757812 C19.2967217,14.2243924 19.1126429,13.8802083 18.7444852,13.6432292 C16.2515318,12.0520833 13.3693831,11.2565104 10.0980392,11.2565104 C8.48866417,11.2565104 6.89506737,11.4934896 5.31724875,11.9674479 C4.81234679,12.1141493 4.55989581,12.4752604 4.55989581,13.0507812 C4.55989581,13.3328993 4.65193523,13.5726997 4.83601407,13.7701823 C5.02009291,13.9676649 5.24361721,14.0664062 5.50658698,14.0664062 C5.58021852,14.0664062 5.77481615,14.0212674 6.09037987,13.9309896 C7.37367235,13.5585937 8.6937806,13.3723958 10.0507046,13.3723958 C12.9854472,13.3723958 15.5520322,14.0720486 17.7504595,15.4713542 C18.0029105,15.6180556 18.2027675,15.6914062 18.3500305,15.6914062 C18.6130003,15.6914062 18.8365246,15.5926649 19.0206035,15.3951823 C19.2046823,15.1976997 19.2967217,14.9578993 19.2967217,14.6757812 Z M21.0007658,10.4778646 C21.0007658,9.94748264 20.79039,9.55251736 20.3696384,9.29296875 C19.0442707,8.46918403 17.5032679,7.84570312 15.7466298,7.42252604 C13.9899918,6.99934896 12.1860191,6.78776042 10.334712,6.78776042 C8.18887864,6.78776042 6.27445871,7.05295139 4.59145218,7.58333333 C4.34952,7.66232639 4.14703327,7.8062066 3.98399201,8.01497396 C3.82095076,8.22374132 3.73943013,8.49739583 3.73943013,8.8359375 C3.73943013,9.18576389 3.84724773,9.47916667 4.06288295,9.71614583 C4.27851816,9.953125 4.54937702,10.0716146 4.87545954,10.0716146 C4.99116623,10.0716146 5.20154205,10.0264757 5.50658698,9.93619792 C6.90558616,9.51866319 8.52022055,9.30989583 10.3504901,9.30989583 C12.0229779,9.30989583 13.6507608,9.50173611 15.2338388,9.88541667 C16.8169168,10.2690972 18.1501735,10.8051215 19.233609,11.4934896 C19.4545036,11.6289063 19.6648794,11.6966146 19.8647364,11.6966146 C20.1697814,11.6966146 20.4353808,11.5809462 20.6615348,11.3496094 C20.8876888,11.1182726 21.0007658,10.827691 21.0007658,10.4778646 Z M24.235294,13 C24.235294,15.3585069 23.6935763,17.5336372 22.6101408,19.5253906 C21.5267054,21.5171441 20.0567044,23.094184 18.2001378,24.2565104 C16.3435712,25.4188368 14.3160743,26 12.117647,26 C9.91921972,26 7.8917228,25.4188368 6.03515622,24.2565104 C4.17858964,23.094184 2.70858863,21.5171441 1.62515318,19.5253906 C0.541717726,17.5336372 0,15.3585069 0,13 C0,10.6414931 0.541717726,8.46636285 1.62515318,6.47460938 C2.70858863,4.4828559 4.17858964,2.90581597 6.03515622,1.74348958 C7.8917228,0.581163194 9.91921972,0 12.117647,0 C14.3160743,0 16.3435712,0.581163194 18.2001378,1.74348958 C20.0567044,2.90581597 21.5267054,4.4828559 22.6101408,6.47460938 C23.6935763,8.46636285 24.235294,10.6414931 24.235294,13 Z" id="Shape"></path>
            </g>
        </g>
    </g>
</svg>